<svg xmlns="http://www.w3.org/2000/svg" viewBox="0 0 400 500">
  <defs>
    <linearGradient id="bg" x1="0" y1="0" x2="0" y2="1">
      <stop offset="0%" stop-color="#041c12"/>
      <stop offset="55%" stop-color="#085041"/>
      <stop offset="100%" stop-color="#041c12"/>
    </linearGradient>
    <radialGradient id="warmGlow" cx="65%" cy="72%" r="50%">
      <stop offset="0%" stop-color="#D4891A" stop-opacity="0.22"/>
      <stop offset="100%" stop-color="transparent"/>
    </radialGradient>
    <radialGradient id="dogBody" cx="40%" cy="38%" r="62%">
      <stop offset="0%" stop-color="#F5C058"/>
      <stop offset="100%" stop-color="#B87020"/>
    </radialGradient>
    <radialGradient id="dogHead" cx="42%" cy="40%" r="58%">
      <stop offset="0%" stop-color="#F8CA62"/>
      <stop offset="100%" stop-color="#BF7822"/>
    </radialGradient>
    <radialGradient id="skin" cx="38%" cy="35%" r="60%">
      <stop offset="0%" stop-color="#D49050"/>
      <stop offset="100%" stop-color="#A86028"/>
    </radialGradient>
  </defs>

  <!-- Background -->
  <rect width="400" height="500" fill="url(#bg)"/>
  <rect width="400" height="500" fill="url(#warmGlow)"/>
  <path d="M0,0 L220,350" stroke="rgba(159,225,203,0.03)" stroke-width="80" fill="none"/>

  <!-- EKG line -->
  <polyline points="0,38 42,38 56,20 70,56 83,28 96,38 138,38"
    fill="none" stroke="#9FE1CB" stroke-width="1.8"
    stroke-linecap="round" stroke-linejoin="round" opacity="0.22"/>

  <!-- Medical cross -->
  <rect x="358" y="25" width="9" height="26" rx="3" fill="#9FE1CB" opacity="0.14"/>
  <rect x="349" y="34" width="27" height="9" rx="3" fill="#9FE1CB" opacity="0.14"/>

  <!-- Decorative dots -->
  <circle cx="358" cy="18" r="2" fill="#9FE1CB" opacity="0.18"/>
  <circle cx="375" cy="64" r="1.5" fill="#9FE1CB" opacity="0.14"/>
  <circle cx="18" cy="410" r="1.5" fill="#9FE1CB" opacity="0.12"/>
  <circle cx="384" cy="390" r="2" fill="#9FE1CB" opacity="0.10"/>

  <!-- Ghost paw print (top-left) -->
  <g fill="#9FE1CB" opacity="0.07">
    <ellipse cx="28" cy="88" rx="8" ry="6" transform="rotate(-20,28,88)"/>
    <circle cx="16" cy="78" r="4.5"/>
    <circle cx="28" cy="74" r="4.5"/>
    <circle cx="40" cy="78" r="4.5"/>
  </g>

  <!-- Sparkle right -->
  <g opacity="0.17">
    <circle cx="372" cy="158" r="2" fill="#9FE1CB"/>
    <line x1="372" y1="150" x2="372" y2="166" stroke="#9FE1CB" stroke-width="1.2"/>
    <line x1="364" y1="158" x2="380" y2="158" stroke="#9FE1CB" stroke-width="1.2"/>
  </g>


  <!-- ============ VET FIGURE ============ -->

  <!-- White coat -->
  <path d="M86,150 Q76,154 66,172 Q54,200 58,262 Q60,280 84,284 L162,284 Q186,280 188,262 Q192,200 180,172 Q170,154 160,150 Z"
    fill="#F2F0EA"/>

  <!-- Scrubs (teal shirt) -->
  <path d="M107,168 L149,168 L151,248 L105,248 Z" fill="#1D9E75" opacity="0.75"/>

  <!-- Coat lapels -->
  <path d="M122,150 L111,182 L105,175 L118,146 Z" fill="#E4E1D8"/>
  <path d="M134,150 L145,182 L151,175 L138,146 Z" fill="#E4E1D8"/>
  <line x1="128" y1="158" x2="128" y2="284" stroke="rgba(0,0,0,0.07)" stroke-width="1.5"/>

  <!-- Pocket + pen -->
  <rect x="148" y="200" width="22" height="26" rx="4" fill="rgba(255,255,255,0.28)" stroke="rgba(180,178,170,0.5)" stroke-width="1"/>
  <rect x="153" y="198" width="4" height="15" rx="2" fill="#085041" opacity="0.75"/>

  <!-- Stethoscope -->
  <path d="M117,176 Q106,196 110,220 Q113,232 123,230"
    fill="none" stroke="#222" stroke-width="3" stroke-linecap="round" opacity="0.6"/>
  <circle cx="123" cy="234" r="8" fill="none" stroke="#222" stroke-width="2.5" opacity="0.6"/>
  <circle cx="123" cy="234" r="3.5" fill="#222" opacity="0.35"/>
  <path d="M117,176 Q118,165 125,163" fill="none" stroke="#222" stroke-width="2.5" stroke-linecap="round" opacity="0.45"/>
  <path d="M139,176 Q138,165 131,163" fill="none" stroke="#222" stroke-width="2.5" stroke-linecap="round" opacity="0.45"/>
  <circle cx="125" cy="161" r="4" fill="#222" opacity="0.45"/>
  <circle cx="131" cy="161" r="4" fill="#222" opacity="0.45"/>

  <!-- Left arm -->
  <path d="M66,188 Q45,212 52,252 Q55,270 72,278"
    stroke="#F2F0EA" stroke-width="24" fill="none" stroke-linecap="round"/>
  <path d="M52,245 Q55,265 72,276"
    stroke="#B07030" stroke-width="18" fill="none" stroke-linecap="round"/>
  <ellipse cx="76" cy="280" rx="14" ry="11" fill="#B07030" transform="rotate(-28,76,280)"/>

  <!-- Right arm (reaching to pet dog) -->
  <path d="M188,188 Q218,210 240,248"
    stroke="#F2F0EA" stroke-width="24" fill="none" stroke-linecap="round"/>
  <path d="M218,222 Q232,240 248,252"
    stroke="#B07030" stroke-width="18" fill="none" stroke-linecap="round"/>
  <ellipse cx="252" cy="254" rx="15" ry="12" fill="#B07030" transform="rotate(25,252,254)"/>
  <path d="M244,249 Q248,244 255,246" fill="none" stroke="#955A25" stroke-width="1.5" stroke-linecap="round" opacity="0.5"/>
  <path d="M243,255 Q247,250 254,252" fill="none" stroke="#955A25" stroke-width="1.5" stroke-linecap="round" opacity="0.5"/>

  <!-- Neck -->
  <rect x="115" y="126" width="26" height="30" rx="13" fill="#B07030"/>

  <!-- Head shadow -->
  <circle cx="130" cy="103" r="36" fill="rgba(0,0,0,0.1)"/>
  <!-- Head -->
  <circle cx="128" cy="101" r="34" fill="url(#skin)"/>

  <!-- Hair -->
  <path d="M94,93 Q97,62 128,57 Q159,62 162,93
    Q157,77 148,70 Q140,65 128,66 Q116,65 108,70 Q99,77 94,93Z"
    fill="#180A02"/>
  <ellipse cx="95" cy="103" rx="9" ry="16" fill="#180A02"/>
  <ellipse cx="161" cy="103" rx="9" ry="16" fill="#180A02"/>
  <ellipse cx="128" cy="68" rx="24" ry="15" fill="#180A02"/>

  <!-- Ears -->
  <ellipse cx="94" cy="101" rx="9" ry="10" fill="#9A5C22"/>
  <ellipse cx="162" cy="101" rx="9" ry="10" fill="#9A5C22"/>

  <!-- Eye whites -->
  <ellipse cx="115" cy="100" rx="8" ry="8.5" fill="white"/>
  <ellipse cx="141" cy="100" rx="8" ry="8.5" fill="white"/>
  <!-- Iris -->
  <circle cx="116" cy="101" r="6" fill="#2A1606"/>
  <circle cx="142" cy="101" r="6" fill="#2A1606"/>
  <!-- Pupil -->
  <circle cx="116" cy="101" r="3.5" fill="#060200"/>
  <circle cx="142" cy="101" r="3.5" fill="#060200"/>
  <!-- Glint -->
  <circle cx="114" cy="98" r="2" fill="white"/>
  <circle cx="140" cy="98" r="2" fill="white"/>

  <!-- Eyebrows -->
  <path d="M107,91 Q115,86 124,90" stroke="#180A02" stroke-width="2.5" fill="none" stroke-linecap="round"/>
  <path d="M132,90 Q141,86 149,91" stroke="#180A02" stroke-width="2.5" fill="none" stroke-linecap="round"/>

  <!-- Nose -->
  <ellipse cx="128" cy="111" rx="5.5" ry="4" fill="#8A4A18" opacity="0.7"/>

  <!-- Warm smile -->
  <path d="M114,121 Q128,133 142,121" fill="none" stroke="#8A4A18" stroke-width="2.5" stroke-linecap="round"/>
  <path d="M117,122 Q128,131 139,122" fill="white" opacity="0.55"/>

  <!-- Cheeks -->
  <ellipse cx="110" cy="118" rx="8" ry="5" fill="#E06830" opacity="0.15"/>
  <ellipse cx="146" cy="118" rx="8" ry="5" fill="#E06830" opacity="0.15"/>


  <!-- ============ GOLDEN RETRIEVER (Biscuit) ============ -->

  <!-- Shadow -->
  <ellipse cx="280" cy="474" rx="82" ry="16" fill="rgba(0,0,0,0.35)"/>

  <!-- Tail -->
  <path d="M350,342 Q396,308 386,268 Q378,244 362,250 Q352,256 354,272 Q360,288 352,308 Q344,326 328,342" fill="#C87818"/>
  <path d="M350,342 Q392,312 382,274 Q374,256 365,258" fill="none" stroke="#F0B845" stroke-width="10" stroke-linecap="round" opacity="0.5"/>

  <!-- Body -->
  <ellipse cx="280" cy="390" rx="90" ry="80" fill="url(#dogBody)"/>
  <!-- Chest highlight -->
  <ellipse cx="264" cy="374" rx="50" ry="42" fill="#FAD068" opacity="0.42"/>

  <!-- Hind legs -->
  <ellipse cx="200" cy="432" rx="30" ry="46" fill="#BE7618" transform="rotate(12,200,432)"/>
  <ellipse cx="358" cy="434" rx="30" ry="44" fill="#BE7618" transform="rotate(-13,358,434)"/>

  <!-- Front legs -->
  <rect x="240" y="422" width="34" height="52" rx="17" fill="#D08820"/>
  <rect x="302" y="422" width="34" height="52" rx="17" fill="#D08820"/>

  <!-- Paws -->
  <ellipse cx="257" cy="476" rx="21" ry="13" fill="#BE7618"/>
  <ellipse cx="319" cy="476" rx="21" ry="13" fill="#BE7618"/>
  <!-- Toe lines -->
  <line x1="250" y1="474" x2="250" y2="483" stroke="#9A5C10" stroke-width="1.5" opacity="0.45"/>
  <line x1="257" y1="472" x2="257" y2="483" stroke="#9A5C10" stroke-width="1.5" opacity="0.45"/>
  <line x1="264" y1="474" x2="264" y2="483" stroke="#9A5C10" stroke-width="1.5" opacity="0.45"/>
  <line x1="312" y1="474" x2="312" y2="483" stroke="#9A5C10" stroke-width="1.5" opacity="0.45"/>
  <line x1="319" y1="472" x2="319" y2="483" stroke="#9A5C10" stroke-width="1.5" opacity="0.45"/>
  <line x1="326" y1="474" x2="326" y2="483" stroke="#9A5C10" stroke-width="1.5" opacity="0.45"/>

  <!-- Neck -->
  <ellipse cx="280" cy="312" rx="44" ry="35" fill="#D08820"/>

  <!-- Head -->
  <circle cx="280" cy="268" r="70" fill="url(#dogHead)"/>
  <!-- Top highlight -->
  <ellipse cx="272" cy="232" rx="46" ry="30" fill="#FAD068" opacity="0.32"/>

  <!-- Left ear -->
  <path d="M216,254 Q193,278 200,314 Q205,336 224,330 Q240,324 242,298 Q244,270 228,252 Z" fill="#B87018"/>
  <path d="M220,262 Q202,283 208,312 Q212,325 224,320 Q234,314 236,294 Q238,274 224,260 Z" fill="#9A5A12" opacity="0.38"/>
  <!-- Right ear -->
  <path d="M344,254 Q367,278 360,314 Q355,336 336,330 Q320,324 318,298 Q316,270 332,252 Z" fill="#B87018"/>
  <path d="M340,262 Q358,283 352,312 Q348,325 336,320 Q326,314 324,294 Q322,274 336,260 Z" fill="#9A5A12" opacity="0.38"/>

  <!-- Muzzle -->
  <ellipse cx="280" cy="290" rx="42" ry="30" fill="#F8D580"/>
  <ellipse cx="280" cy="282" rx="30" ry="20" fill="#FAE090"/>

  <!-- Nose -->
  <path d="M262,270 Q280,264 298,270 Q298,282 280,284 Q262,282 262,270Z" fill="#180A00"/>
  <ellipse cx="270" cy="271" rx="5" ry="3" fill="rgba(255,255,255,0.22)"/>
  <ellipse cx="270" cy="276" rx="4" ry="2.8" fill="#080300" opacity="0.45"/>
  <ellipse cx="290" cy="276" rx="4" ry="2.8" fill="#080300" opacity="0.45"/>

  <!-- Eye whites -->
  <ellipse cx="255" cy="258" rx="16" ry="15" fill="white"/>
  <ellipse cx="305" cy="258" rx="16" ry="15" fill="white"/>
  <!-- Iris -->
  <circle cx="257" cy="259" r="11" fill="#462406"/>
  <circle cx="307" cy="259" r="11" fill="#462406"/>
  <!-- Pupil -->
  <circle cx="257" cy="260" r="6.5" fill="#060200"/>
  <circle cx="307" cy="260" r="6.5" fill="#060200"/>
  <!-- Glint -->
  <circle cx="252" cy="254" r="3.5" fill="white"/>
  <circle cx="302" cy="254" r="3.5" fill="white"/>
  <circle cx="259" cy="258" r="1.5" fill="rgba(255,255,255,0.4)"/>
  <circle cx="309" cy="258" r="1.5" fill="rgba(255,255,255,0.4)"/>

  <!-- Expressive eyebrows -->
  <path d="M240,243 Q255,235 270,241" stroke="#C07818" stroke-width="3.5" fill="none" stroke-linecap="round"/>
  <path d="M290,241 Q305,235 320,243" stroke="#C07818" stroke-width="3.5" fill="none" stroke-linecap="round"/>

  <!-- Smile -->
  <path d="M256,298 Q280,314 304,298" fill="none" stroke="#180A00" stroke-width="3" stroke-linecap="round"/>
  <path d="M256,298 Q280,312 304,298 Q300,308 280,310 Q260,308 256,298Z" fill="#D4A048" opacity="0.35"/>

  <!-- Tongue -->
  <ellipse cx="280" cy="316" rx="20" ry="17" fill="#E04040"/>
  <line x1="280" y1="299" x2="280" y2="333" stroke="#C02828" stroke-width="2.5"/>
  <ellipse cx="274" cy="310" rx="7" ry="6" fill="#F06050" opacity="0.48"/>

  <!-- Cheek fluff -->
  <ellipse cx="226" cy="283" rx="17" ry="10" fill="#F8D068" opacity="0.28"/>
  <ellipse cx="334" cy="283" rx="17" ry="10" fill="#F8D068" opacity="0.28"/>
  <ellipse cx="228" cy="281" rx="13" ry="8" fill="#E07030" opacity="0.11"/>
  <ellipse cx="332" cy="281" rx="13" ry="8" fill="#E07030" opacity="0.11"/>

  <!-- PetVet collar -->
  <path d="M238,328 Q280,342 322,328 Q318,346 280,348 Q242,346 238,328Z" fill="#085041"/>
  <path d="M240,330 Q280,341 320,330" fill="none" stroke="#1D9E75" stroke-width="1.5" opacity="0.55"/>
  <!-- Collar tag -->
  <circle cx="280" cy="344" r="11" fill="#1D9E75"/>
  <circle cx="280" cy="344" r="8.5" fill="#0F6E56"/>
  <text x="280" y="348" text-anchor="middle" font-size="8" fill="#9FE1CB" font-family="sans-serif" font-weight="bold">PV</text>


  <!-- Ghost paw print (bottom-left) -->
  <g fill="#9FE1CB" opacity="0.08" transform="translate(38,452)">
    <ellipse cx="0" cy="8" rx="8" ry="6" transform="rotate(-15,0,8)"/>
    <circle cx="-10" cy="0" r="4.5"/>
    <circle cx="10" cy="0" r="4.5"/>
    <circle cx="-15" cy="8" r="3.5"/>
    <circle cx="15" cy="8" r="3.5"/>
  </g>

  <!-- Brand footer strip -->
  <rect x="0" y="488" width="400" height="12" fill="rgba(8,80,65,0.65)"/>
  <text x="200" y="498" text-anchor="middle" font-size="8.5" fill="#9FE1CB"
    font-family="sans-serif" letter-spacing="2.5" opacity="0.75">PETVET · HEALTH TRACKED ALWAYS</text>

</svg>
